# xmcd CD database file
#
# Track frame offsets:
#	150
#	18553
#	37025
#
# Disc length: 857 seconds
#
# Revision: 0
# Processed by: cddbd v1.5.1PL2 Copyright (c) Steve Scherf et al.
# Submitted via: CDex 1.51
#
DISCID=1f035703
DTITLE=松田亮治 - くつずれ
DYEAR=2006
DGENRE=Ballad
TTITLE0=くつずれ
TTITLE1=湿性の迷路
TTITLE2=Superstar
EXTD=YEAR: 2006
EXTT0=
EXTT1=
EXTT2=
PLAYORDER=
